<svg xmlns="http://www.w3.org/2000/svg" width="16" height="16" viewBox="0 0 16 16"><defs><style>.a{fill:none;}.b{fill:#fff;fill-rule:evenodd;}</style></defs><g transform="translate(-22 -339)"><rect class="a" width="16" height="16" transform="translate(22 339)"/><path class="b" d="M7,8a2,2,0,1,1-2,2A2.006,2.006,0,0,1,7,8ZM7,2A2.006,2.006,0,0,0,5,4H9A2.006,2.006,0,0,0,7,2Zm5,14H2a2.006,2.006,0,0,1-2-2V6A2.006,2.006,0,0,1,2,4H3a4,4,0,0,1,8,0h1a2.006,2.006,0,0,1,2,2v8A2.006,2.006,0,0,1,12,16Z" transform="translate(23 339)"/></g></svg>